<?xml version="1.0" encoding="utf-8"?>
<!-- Generator: Adobe Illustrator 15.0.0, SVG Export Plug-In . SVG Version: 6.00 Build 0)  -->
<!DOCTYPE svg PUBLIC "-//W3C//DTD SVG 1.1//EN" "http://www.w3.org/Graphics/SVG/1.1/DTD/svg11.dtd">
<svg version="1.1" id="Layer_1" xmlns="http://www.w3.org/2000/svg" xmlns:xlink="http://www.w3.org/1999/xlink" x="0px" y="0px"
	 width="24px" height="24px" viewBox="0 0 24 24" enable-background="new 0 0 24 24" xml:space="preserve">
<path fill="#010101" d="M11.78,18.762v0.695h0.475V18.76c0.475-0.047,0.799-0.189,1.047-0.432c0.25-0.24,0.392-0.563,0.392-0.967
	c0-0.414-0.116-0.734-0.362-0.965c-0.248-0.229-0.623-0.445-1.135-0.648c-0.278-0.109-0.465-0.221-0.567-0.332
	c-0.105-0.111-0.155-0.258-0.155-0.441c0-0.188,0.048-0.344,0.145-0.455c0.099-0.117,0.246-0.174,0.448-0.174
	c0.196,0,0.349,0.064,0.461,0.215c0.113,0.148,0.169,0.307,0.169,0.625h0.992l0.01-0.01c0.003-0.449-0.098-0.809-0.334-1.088
	c-0.232-0.283-0.634-0.445-0.949-0.51v-0.769H11.78v0.765c-0.317,0.043-0.727,0.189-0.98,0.438c-0.249,0.252-0.357,0.57-0.357,0.961
	c0,0.418,0.135,0.746,0.386,0.977c0.245,0.23,0.633,0.441,1.147,0.631c0.263,0.102,0.45,0.211,0.559,0.33
	c0.106,0.119,0.162,0.273,0.162,0.457c0,0.193-0.055,0.342-0.168,0.455c-0.112,0.113-0.275,0.17-0.485,0.17
	c-0.222,0-0.402-0.088-0.546-0.223c-0.143-0.133-0.213-0.367-0.213-0.684h-0.994l-0.006,0.031c-0.01,0.514,0.132,0.908,0.416,1.176
	C10.98,18.555,11.306,18.719,11.78,18.762"/>
<path fill="#010101" d="M12,6.507c1.287,0,2.321-1.04,2.321-2.326c0-1.289-1.034-2.329-2.321-2.329s-2.328,1.04-2.328,2.329
	C9.671,5.467,10.713,6.507,12,6.507"/>
<path fill="#010101" d="M21.335,3.8c-1.291,0-2.322,1.041-2.322,2.327c0,1.289,1.031,2.329,2.322,2.329
	c1.282,0,2.324-1.04,2.324-2.329C23.659,4.84,22.617,3.8,21.335,3.8"/>
<path fill="#010101" d="M21.276,9.914c-1.117,0-2.056,0.911-2.056,2.031v3.874h-1.584v-5.701h-1.705
	c-0.548-1.424-2.751-2.063-3.913-2.063c-1.166,0-3.365,0.639-3.913,2.063H6.239v5.701H4.656v-3.874c0-1.12-0.859-2.031-1.978-2.031
	c-1.119,0-1.98,0.911-1.98,2.03v5.689c0,0.77,0.578,1.35,1.348,1.35h2.928v3.166h3.165h7.754h3.17v-3.166h2.891
	c0.766,0,1.378-0.58,1.378-1.35v-5.689C23.332,10.825,22.397,9.914,21.276,9.914 M15.739,19.932H8.298v-7.598h7.441V19.932z"/>
<path fill="#010101" d="M2.668,8.455c1.287,0,2.319-1.04,2.319-2.329C4.987,4.84,3.955,3.8,2.668,3.8
	C1.379,3.8,0.34,4.84,0.34,6.126C0.34,7.415,1.379,8.455,2.668,8.455"/>
</svg>
